<?xml version="1.0" encoding="UTF-8"?>
<svg id="Layer_2" data-name="Layer 2" xmlns="http://www.w3.org/2000/svg" viewBox="0 0 1242.69 375.39">
  <defs>
    <style>
      .cls-1 {
        fill: #fff;
      }

      .cls-2 {
        fill: #4666ff;
      }
    </style>
  </defs>
  <g id="Layer_1-2" data-name="Layer 1">
    <path class="cls-2" d="m384.92,45.23l-.21,2.5c-3.01,47.78-4.51,88.82-4.51,123.11,0,15.29.27,38.18.82,68.69.54,30.51.82,53.34.82,68.49,0,2.96-1.1,4.43-3.28,4.43h-39.16c-2.46,0-3.69-1.48-3.69-4.43,0-15.15.13-37.99.41-68.49.27-30.5.41-53.4.41-68.69,0-13.87-.72-34.71-2.15-62.52-1.44-27.81-2.15-48.58-2.15-62.33,0-2.57,1.44-3.85,4.31-3.85,2.46,0,6.15.19,11.07.58,4.92.39,8.61.58,11.07.58,2.59,0,6.42-.19,11.48-.58,5.05-.39,8.81-.58,11.27-.58s3.62,1.03,3.49,3.08Z"/>
    <path class="cls-2" d="m455.92,82.38c0,15.8-9.36,23.7-28.09,23.7s-28.5-7.9-28.5-23.7c0-7.06,2.94-12.91,8.82-17.53,5.46-4.36,12.02-6.55,19.68-6.55s14.25,2.25,19.78,6.74c5.53,4.5,8.3,10.28,8.3,17.34Zm-1.43,52.21c0,9.89-.65,24.82-1.95,44.8-1.3,19.97-1.95,34.97-1.95,44.99,0,9.38.21,23.41.62,42.1.41,18.69.62,32.66.62,41.91,0,2.7-1.23,4.05-3.69,4.05h-39.98c-2.87,0-4.31-2.63-4.31-7.9,0-8.86.24-22.19.72-39.98.48-17.79.72-31.18.72-40.17,0-10.02-.79-25.05-2.36-45.08-1.57-20.04-2.36-35.07-2.36-45.08,0-2.18,1.43-3.28,4.3-3.28,2.46,0,6.25.32,11.38.96,5.12.64,8.98.96,11.58.96s6.46-.32,11.58-.96c5.12-.64,8.98-.96,11.58-.96,2.32,0,3.49,1.22,3.49,3.66Z"/>
    <path class="cls-2" d="m682.88,222.41c0,25.95-8.75,48.49-26.24,67.63-18.32,20.17-41.07,30.25-68.27,30.25-16.95,0-31.78-4.95-44.49-14.84-5.74-5.01-11.48-10.08-17.22-15.22-.82.39-1.37,1.41-1.64,3.08-.14.77-.21,7.97-.21,21.58l-.21,54.33c0,4.11-1.57,6.17-4.71,6.17-21.05,0-33.49-.26-37.31-.77-3.15-.39-4.71-2.06-4.71-5.01,0-16.44.13-41.1.41-73.98.27-32.88.41-57.54.41-73.98,0-30.18-2.05-58.5-6.15-84.97-.28-1.54-.41-2.57-.41-3.08,0-1.41.68-2.31,2.05-2.7,5.19-.26,12.78-.96,22.76-2.12,13.39-2.31,20.91-3.47,22.55-3.47,2.32,0,3.82,3.85,4.51,11.56.41,5.14.75,10.21,1.03,15.22,0,1.03.41,2.06,1.23,3.08.96-.51,2.05-1.41,3.28-2.7,19.13-18.37,38.47-27.55,58.02-27.55,27.06,0,49.88,9.96,68.47,29.86,17.9,19.14,26.86,41.68,26.86,67.63Zm-47.97-.77c0-15.41-5.12-28.96-15.38-40.65-10.8-12.46-24.26-18.69-40.38-18.69s-28.84,6.42-38.95,19.27c-9.3,11.56-13.94,25.05-13.94,40.46s4.78,29.29,14.35,40.85c10.52,12.46,23.91,18.69,40.18,18.69s28.7-6.48,39.36-19.46c9.84-12.07,14.76-25.56,14.76-40.46Z"/>
    <path class="cls-2" d="m981.08,309.96c0,5.01-1.38,7.51-4.15,7.51-1.81,0-4.54-.19-8.21-.58-3.67-.39-6.47-.58-8.4-.58-2.05,0-5.12.13-9.21.39-4.09.26-7.16.39-9.21.39-2.53,0-3.79-3.02-3.79-9.06s.21-14.74.63-26.49c.42-11.75.63-20.58.63-26.49,0-32.49-.12-50.61-.36-54.33-.97-13.23-3.49-22.35-7.58-27.36-4.69-5.39-13.06-8.09-25.1-8.09-7.58,0-16.13,3.85-25.64,11.56-9.87,8.09-14.99,16.06-15.35,23.89-.48,10.02-.72,28.32-.72,54.91,0,6.29.24,15.74.72,28.32.48,12.59.72,22.03.72,28.32,0,3.47-1.08,5.2-3.25,5.2s-5.33-.19-9.48-.58c-4.15-.39-7.31-.58-9.48-.58-1.93,0-4.76.13-8.49.39-3.73.26-6.56.39-8.49.39-2.41,0-3.61-1.86-3.61-5.59,0-6.17.18-15.44.54-27.84.36-12.39.54-21.68.54-27.84v-46.43c0-14.51-1.62-24.85-4.88-31.02-4.58-8.73-13.3-13.1-26.18-13.1-7.58,0-16.61,3.4-27.08,10.21-11.56,7.45-17.33,14.96-17.33,22.54v56.26c0,6.42.06,15.99.18,28.71.12,12.72.18,22.22.18,28.51,0,3.73-1.38,5.59-4.15,5.59h-33.58c-2.41,0-3.61-1.73-3.61-5.2,0-10.4.06-26.04.18-46.91.12-20.87.18-36.51.18-46.91,0-23.51-2.35-46.94-7.04-70.32-.36-1.67-.54-3.02-.54-4.05,0-1.67.54-2.63,1.62-2.89,4.45-.51,10.95-1.48,19.5-2.89,3.97-1.28,9.93-2.7,17.87-4.24l1.44-.19c1.44,0,2.8,4.53,4.06,13.58,1.26,9.06,2.38,13.58,3.34,13.58l9.03-8.48c7.1-6.55,14.2-11.75,21.3-15.61,10.23-5.65,20.46-8.48,30.69-8.48,27.68,0,45.32,12.07,52.9,36.22,7.46-10.27,16.73-18.75,27.8-25.43,11.8-7.19,23.47-10.79,35.03-10.79,22.27,0,37.67,6.94,46.22,20.81,6.14,10.28,9.21,26.52,9.21,48.75,0,4.24-.12,10.79-.36,19.65-.24,8.86-.36,15.41-.36,19.65,0,8.09.18,20.26.54,36.51.36,16.25.54,28.42.54,36.51Z"/>
    <path class="cls-2" d="m1183.61,213.33c0,9.51-4.38,15.87-13.12,19.07-5.88,2.06-48.18,5.85-126.9,11.37,1.77,11.3,8.41,20.94,19.88,28.9,10.93,7.58,22.68,11.37,35.26,11.37,21.59,0,41.41-6.55,59.45-19.65,2.18-1.67,4.37-3.34,6.56-5.01,1.09,0,1.81.13,2.15.39.34.26,2.9,4.72,7.69,13.39,4.78,8.67,7.18,13.33,7.18,13.97,0,.77-1.1,2.25-3.28,4.43-20.09,20.04-45.85,30.06-77.29,30.06s-56.99-8.89-75.85-26.68c-18.86-17.79-28.29-41.52-28.29-71.19,0-26.46,9.02-49.52,27.06-69.17,19-20.42,42.3-30.63,69.91-30.63,25.69,0,47.15,8.86,64.37,26.59,16.81,17.21,25.21,38.15,25.21,62.81Zm-48.79-11.75c0-10.66-4.48-20.1-13.43-28.32-8.95-8.22-19.03-12.33-30.24-12.33-12.58,0-23.75,4.75-33.52,14.26-9.77,9.51-14.66,20.17-14.66,31.98,0,2.7,2.46,4.05,7.38,4.05,20.22,0,44.42-1.93,72.57-5.78,7.92-1.03,11.89-2.31,11.89-3.85Z"/>
    <g>
      <path class="cls-2" d="m83.64,24.57l-30.6,22.23C7.95,79.56-10.92,137.62,6.3,190.62l11.69,35.98c17.22,53,66.61,88.89,122.34,88.89h37.83c55.73,0,105.12-35.88,122.34-88.89l11.69-35.98c17.22-53-1.64-111.06-46.73-143.82l-30.6-22.23c-45.09-32.76-106.14-32.76-151.22,0Z"/>
      <path class="cls-1" d="m160.7,269.23c-59.82,0-108.49-48.67-108.49-108.49s48.67-108.49,108.49-108.49c27.46,0,53.5,10.27,73.4,28.59,5.87,5.4,5.63,14.74-.52,19.82l-12.21,10.08c-4.98,4.11-12.18,3.96-17.06-.28-12.02-10.45-27.42-16.28-43.62-16.28-36.7,0-66.56,29.86-66.56,66.56s29.86,66.56,66.56,66.56c14.81,0,28.77-4.74,40.27-13.54,5.13-3.92,12.33-3.61,17.04.82l11.51,10.82c5.82,5.47,5.46,14.82-.77,19.83-19.16,15.4-43.26,24.01-68.05,24.01Z"/>
    </g>
    <path class="cls-2" d="m1242.69,289.65c0,7.42-2.5,13.91-7.5,19.47-5,5.56-11.16,8.35-18.46,8.35s-13.43-2.87-18.38-8.6c-4.72-5.39-7.08-11.8-7.08-19.22s2.42-13.96,7.25-19.3c4.83-5.34,10.9-8.01,18.21-8.01s13.6,2.7,18.54,8.09c4.94,5.4,7.42,11.8,7.42,19.22Z"/>
  </g>
</svg>